<svg width="122" height="39" viewBox="0 0 122 39" fill="none" xmlns="http://www.w3.org/2000/svg">
<path d="M17.9624 30.9382L5.6552 15.4034V30.9382H0V5.81274H4.87385L17.1452 21.3475V5.81274H22.8363V30.9382H17.9624Z" fill="black"/>
<path d="M26.1777 22.0561C26.1777 16.7477 30.1972 12.856 35.6035 12.856C40.7609 12.856 45.2781 16.3596 45.1011 23.3312H31.407C31.584 25.136 32.9722 26.7289 35.8883 26.7289C37.4535 26.7289 38.8762 26.0205 39.3035 25.0657H44.924C43.786 28.7456 40.0873 31.3289 35.6047 31.3289C30.0907 31.3277 26.1777 27.4348 26.1777 22.0561ZM31.5494 19.9335H39.1611C38.5914 17.8096 36.8492 17.1025 35.4623 17.1025C33.3275 17.1025 32.0112 18.3406 31.5494 19.9335Z" fill="black"/>
<path d="M49.9382 24.4617V17.8794H46.3807V13.2436H49.9382V8.32446H55.3086V13.2436H60.289V17.8794H55.3086V23.364C55.3086 25.4867 56.1977 26.3724 58.3325 26.3724C59.151 26.3724 59.7194 26.3022 60.289 26.0534V30.7951C59.4705 31.0427 58.5108 31.1487 57.088 31.1487C53.1404 31.1499 49.9382 28.9915 49.9382 24.4617Z" fill="black"/>
<path d="M62.3516 22.0918C62.3516 16.9608 66.2992 12.856 71.7067 12.856C76.7577 12.856 79.9227 16.006 80.8836 20.1454H75.3349C74.6588 18.7299 73.5914 17.6679 71.7067 17.6679C69.4308 17.6679 67.7591 19.2953 67.7591 22.0918C67.7591 24.8883 69.4308 26.5157 71.7067 26.5157C73.5914 26.5157 74.6588 25.4538 75.3349 24.0383H80.8836C79.9239 28.1789 76.7577 31.3289 71.7067 31.3289C66.3004 31.3277 62.3516 27.2229 62.3516 22.0918Z" fill="black"/>
<path d="M83.9766 4.39697H89.3482V30.938H83.9766V4.39697Z" fill="black"/>
<path d="M99.1295 13.2441H93.7578V30.9385H99.1295V13.2441Z" fill="black"/>
<path d="M103.539 38.3343V13.2433H108.911V15.0124C109.587 14.0219 111.401 12.854 113.747 12.854C118.407 12.854 121.999 17.1005 121.999 22.0899C121.999 27.0792 118.407 31.3258 113.747 31.3258C111.4 31.3258 109.586 30.1579 108.911 29.1674V38.333H103.539V38.3343ZM116.593 22.0911C116.593 19.5435 114.957 17.7029 112.538 17.7029C110.119 17.7029 108.482 19.5435 108.482 22.0911C108.482 24.6388 110.119 26.4793 112.538 26.4793C114.957 26.4793 116.593 24.6388 116.593 22.0911Z" fill="black"/>
<path d="M102.163 5.46244L97.9605 8.19242L93.7578 10.9236V5.46244V0L97.9605 2.73122L102.163 5.46244Z" fill="#05E5AF"/>
</svg>
